Coordinates
version=1
nRows=12
nColumns=24
inDegrees=yes

Units are S.I. units (second, meters, Newtons, ...)
Angles are in degrees.

endheader
time	pelvis_tilt	pelvis_list	pelvis_rotation	pelvis_tx	pelvis_ty	pelvis_tz	hip_flexion_r	hip_adduction_r	hip_rotation_r	knee_angle_r	ankle_angle_r	subtalar_angle_r	mtp_angle_r	hip_flexion_l	hip_adduction_l	hip_rotation_l	knee_angle_l	ankle_angle_l	subtalar_angle_l	mtp_angle_l	lumbar_extension	lumbar_bending	lumbar_rotation
      0.46500000	     -5.90139735	     -1.76295471	     -0.18510735	     -0.85286605	      1.03520966	      0.27879906	     32.96088321	      1.70628430	     -7.74754147	    -17.74394324	      7.51993448	      2.62902704	      5.41744439	     -2.53326543	     -1.70907516	      0.04828451	    -21.84567742	     27.06227021	      9.30251857	      1.47062947	     -5.51459427	      0.45501912	     -1.70951594
      0.46916667	     -5.84434957	     -1.75985394	     -0.14902167	     -0.84644258	      1.03390627	      0.27902338	     32.96684890	      1.76333166	     -7.52038305	    -17.94257985	      7.49867106	      2.39192295	      5.41490926	     -2.71097204	     -1.77137663	     -0.20402621	    -22.43787657	     27.18724844	      9.69213491	      1.51740400	     -5.58693002	      0.51531874	     -1.70694676
      0.47333333	     -5.78688512	     -1.77583426	     -0.10585860	     -0.83994202	      1.03264001	      0.27922421	     32.96262003	      1.83423934	     -7.31918969	    -18.21640964	      7.46638432	      2.11976819	      5.41214040	     -2.86455445	     -1.86409265	     -0.48136536	    -23.08800228	     27.29758296	     10.11680278	      1.59530560	     -5.63359087	      0.60494206	     -1.69599163
      0.47750000	     -5.71083946	     -1.81521164	     -0.06129693	     -0.83339858	      1.03144730	      0.27942996	     32.92414839	      1.93110163	     -7.12001237	    -18.54182624	      7.38566330	      1.82920435	      5.40881434	     -3.01047114	     -1.99689905	     -0.79598457	    -23.80324561	     27.34830100	     10.59066061	      1.72789660	     -5.69703742	      0.72832747	     -1.68006452
      0.48166667	     -5.60749745	     -1.84476743	     -0.01806236	     -0.82685653	      1.03032846	      0.27964430	     32.85809838	      2.02178679	     -6.90884290	    -18.94547582	      7.32059591	      1.52208403	      5.40634800	     -3.16074324	     -2.12733261	     -1.12089446	    -24.56093470	     27.36043262	     11.07207539	      1.91202398	     -5.78578121	      0.83591838	     -1.66796256
      0.48583333	     -5.53368540	     -1.87787355	      0.03119366	     -0.82026041	      1.02919856	      0.27985428	     32.81703840	      2.11605949	     -6.68866527	    -19.41200407	      7.24916572	      1.16968858	      5.40374886	     -3.24828867	     -2.26968879	     -1.42887021	    -25.39025656	     27.33601368	     11.57151863	      2.15664323	     -5.83518708	      0.96012806	     -1.65871244
      0.49000000	     -5.42231462	     -1.91164884	      0.07667963	     -0.81366160	      1.02816905	      0.28007175	     32.73145752	      2.21528920	     -6.46045441	    -19.93088559	      7.17254459	      0.81257054	      5.40098802	     -3.35788445	     -2.42020269	     -1.73758365	    -26.25616508	     27.25033745	     12.07666056	      2.45399353	     -5.93407204	      1.09173386	     -1.64709939
      0.49416667	     -5.30739161	     -1.94683334	      0.12041359	     -0.80703845	      1.02718628	      0.28031001	     32.63822624	      2.31996245	     -6.22935594	    -20.50082332	      7.08979401	      0.42074999	      5.39759875	     -3.43374499	     -2.58464838	     -2.05531243	    -27.19537652	     27.11352257	     12.60020828	      2.81953830	     -6.02499910	      1.22512798	     -1.63327025
      0.49833333	     -5.20944442	     -1.95638356	      0.16845389	     -0.80043077	      1.02623543	      0.28055376	     32.56449489	      2.40325143	     -5.96138578	    -21.12167602	      6.98583841	     -0.05510720	      5.38295430	     -3.46759302	     -2.71870570	     -2.30434716	    -28.15986705	     26.80782011	     12.97464511	      7.23665715	     -6.10329762	      1.31971804	     -1.53904490
      0.50250000	     -5.07074520	     -1.98566969	      0.21928900	     -0.79379799	      1.02539273	      0.28078417	     32.44569476	      2.49546664	     -5.76377247	    -21.79122824	      6.96021226	     -0.36313298	      5.37791587	     -3.50296680	     -2.89769235	     -2.61635975	    -29.21669459	     26.51592830	     13.53113986	      7.33366057	     -6.22255418	      1.46962106	     -1.61760087
      0.50666667	     -4.95710668	     -2.00740987	      0.26195351	     -0.78715042	      1.02455966	      0.28106171	     32.34760238	      2.59423173	     -5.51340551	    -22.48169758	      6.88673322	     -0.79767451	      5.36533294	     -3.48140587	     -3.07604538	     -2.91276296	    -30.33121848	     26.17073716	     14.04173183	      7.48857571	     -6.30339143	      1.59251609	     -1.61088092
      0.51083333	     -4.82718220	     -2.03704197	      0.29906057	     -0.78052423	      1.02381913	      0.28135217	     32.22635349	      2.70926810	     -5.24047984	    -23.19186017	      6.84509480	     -1.27468730	      5.17463383	     -3.44689026	     -3.26927150	     -3.19295849	    -31.48884070	     25.67285861	     14.47881385	     10.53252002	     -6.40756189	      1.74825037	     -1.54736522
